<svg xmlns="http://www.w3.org/2000/svg" width="24" height="24" viewBox="0 0 24 24" fill="none">
  <path d="M14.5025 5.23589V19.7641C14.5025 21.4951 12.6206 22.5657 11.1291 21.6852L6.75475 17.6429C6.57457 17.4728 6.32432 17.3728 6.07407 17.3728H4.002C2.9009 17.3728 2 16.4722 2 15.3716V9.47829C2 8.36766 2.9009 7.47716 4.002 7.47716H6.08408C6.33433 7.47716 6.56456 7.38711 6.75475 7.22702L11.1291 3.3148C12.6206 2.43431 14.5025 3.50491 14.5025 5.23589Z" fill="white"/>
  <path d="M17.2653 16.5023C17.1251 16.5023 16.985 16.4622 16.8649 16.3822C16.5145 16.1621 16.4144 15.6918 16.6346 15.3416C16.6346 15.3316 17.5556 13.8908 17.5556 12.51C17.5556 11.1292 16.6446 9.65839 16.6346 9.63838C16.4144 9.28818 16.5245 8.82792 16.8749 8.6078C17.2252 8.38767 17.6857 8.48773 17.9059 8.83793C17.956 8.90797 19.0571 10.689 19.0571 12.51C19.0571 14.331 17.9459 16.082 17.9059 16.1521C17.7658 16.3722 17.5255 16.4923 17.2753 16.4923L17.2653 16.5023Z" fill="white"/>
  <path d="M19.3774 18.5034C19.2272 18.5034 19.0671 18.4534 18.9369 18.3633C18.6066 18.1232 18.5265 17.6529 18.7668 17.3127C18.7868 17.2927 20.4985 14.9014 20.4985 12.54C20.4985 10.1787 18.7768 7.69728 18.7668 7.67727C18.5265 7.33708 18.6166 6.86681 18.957 6.63668C19.2973 6.40655 19.7678 6.4866 19.998 6.82679C20.0781 6.94686 22 9.73844 22 12.55C22 15.3616 20.0681 18.0932 19.988 18.2032C19.8378 18.4033 19.6076 18.5134 19.3774 18.5134V18.5034Z" fill="white"/>
</svg>