<svg xmlns="http://www.w3.org/2000/svg" width="24" height="24" viewBox="0 0 24 24" fill="none">
  <path d="M14.4589 5.23589V19.7641C14.4589 21.4951 12.5835 22.5657 11.0973 21.6852L6.73815 17.6429C6.5586 17.4728 6.30923 17.3728 6.05985 17.3728H3.99501C2.89776 17.3728 2 16.4722 2 15.3716V9.47829C2 8.36766 2.89776 7.47716 3.99501 7.47716H6.06983C6.3192 7.47716 6.54863 7.38711 6.73815 7.22702L11.0973 3.3148C12.5835 2.43431 14.4589 3.50491 14.4589 5.23589Z" fill="white"/>
  <path d="M21.7806 14.281C22.0698 14.5712 22.0698 15.0414 21.7806 15.3416C21.6309 15.4817 21.4414 15.5617 21.2519 15.5617C21.0623 15.5617 20.8728 15.4817 20.7232 15.3416L18.9576 13.5706L17.192 15.3416C16.9027 15.6318 16.4339 15.6318 16.1347 15.3416C15.8454 15.0414 15.8454 14.5712 16.1347 14.281L17.9002 12.51L16.1347 10.739C15.8454 10.4488 15.8454 9.96857 16.1347 9.6784C16.4339 9.38824 16.9027 9.38824 17.192 9.6784L18.9576 11.4494L20.7232 9.6784C21.0125 9.38824 21.4913 9.38824 21.7806 9.6784C21.9302 9.81848 22 10.0186 22 10.2087C22 10.3988 21.9302 10.5989 21.7806 10.739L20.015 12.51L21.7806 14.281Z" fill="white"/>
</svg>